<?xml version="1.0" standalone="no"?>
<!DOCTYPE svg PUBLIC "-//W3C//DTD SVG 20010904//EN"
 "http://www.w3.org/TR/2001/REC-SVG-20010904/DTD/svg10.dtd">
<svg version="1.0" xmlns="http://www.w3.org/2000/svg"
 width="500.000000pt" height="500.000000pt" viewBox="0 0 500.000000 500.000000"
 preserveAspectRatio="xMidYMid meet">
<metadata>
Created by potrace 1.14, written by Peter Selinger 2001-2017
</metadata>
<g transform="translate(0.000000,500.000000) scale(0.100000,-0.100000)"
fill="#000000" stroke="none">
<path d="M2520 4906 c-104 -23 -226 -61 -245 -76 -5 -4 -28 -13 -49 -20 -22
-7 -62 -26 -90 -42 -91 -54 -208 -110 -285 -135 -60 -21 -94 -25 -176 -25 -88
0 -107 3 -152 25 -28 14 -62 40 -76 56 -26 31 -59 108 -72 169 -14 66 -44 55
-167 -58 -41 -38 -70 -75 -91 -120 -30 -63 -31 -69 -32 -204 0 -154 0 -154
-70 -155 -44 -1 -135 -42 -192 -85 -90 -68 -145 -160 -185 -306 -26 -93 -28
-254 -5 -316 15 -40 15 -43 -9 -78 -14 -20 -28 -36 -32 -36 -17 0 -95 -134
-118 -202 -31 -93 -33 -214 -4 -288 25 -63 25 -100 1 -131 -42 -54 -77 -144
-116 -299 -35 -137 -36 -360 -1 -510 28 -121 72 -246 107 -300 5 -8 15 -26 21
-40 27 -56 81 -133 134 -192 191 -214 216 -303 112 -400 -28 -27 -58 -48 -67
-48 -9 0 -35 -9 -59 -20 -50 -23 -53 -41 -16 -95 55 -81 124 -115 294 -144 87
-15 136 -29 160 -45 70 -47 158 -96 170 -96 7 0 65 -53 129 -118 127 -128 196
-189 281 -244 85 -55 314 -168 341 -168 7 0 40 -9 73 -19 138 -43 250 -56 486
-56 238 0 362 15 478 56 30 10 61 19 69 19 29 0 260 112 338 164 84 56 211
161 264 220 115 127 140 147 241 204 104 58 139 70 275 92 39 6 95 23 125 38
57 28 134 99 143 132 8 31 -21 59 -78 75 -66 20 -126 74 -143 131 -21 71 15
146 139 288 64 74 125 155 154 207 35 63 85 170 85 183 0 6 9 33 19 61 41 106
56 212 56 385 0 127 -5 178 -18 222 -9 31 -17 64 -17 75 0 10 -6 30 -14 45 -8
14 -19 43 -26 65 -7 21 -17 44 -23 52 -6 7 -16 21 -22 31 -5 9 -22 36 -37 58
-30 45 -33 63 -18 108 18 54 40 237 40 331 0 165 -41 390 -92 503 -71 161
-194 307 -347 412 -67 47 -211 115 -259 123 -41 7 -45 10 -69 63 -14 32 -30
64 -34 72 -5 8 -17 31 -28 50 -42 76 -148 176 -241 226 -55 29 -128 57 -220
86 -175 54 -224 61 -435 64 -178 3 -211 0 -305 -20z m575 -1296 c22 -11 45
-19 51 -20 10 0 116 -99 142 -133 6 -9 17 -27 23 -40 10 -21 20 -25 82 -30
211 -18 338 -113 440 -329 19 -40 38 -89 41 -108 4 -19 14 -55 22 -80 17 -51
47 -251 73 -485 6 -49 15 -112 20 -140 16 -81 13 -341 -5 -415 -8 -35 -20 -98
-25 -139 -6 -42 -17 -88 -25 -103 -8 -15 -14 -37 -14 -48 0 -32 -57 -157 -99
-217 -64 -93 -221 -172 -341 -173 -58 0 -149 39 -265 115 -86 56 -175 105
-203 111 -15 4 -43 15 -62 26 -19 10 -44 18 -55 18 -11 0 -53 11 -93 25 -41
14 -82 25 -93 25 -25 0 -24 16 1 37 12 11 20 30 20 50 l0 33 -217 -2 -218 -3
-3 -29 c-2 -19 2 -32 12 -38 9 -5 16 -18 16 -28 0 -14 -9 -21 -37 -25 -21 -3
-65 -15 -98 -25 -33 -10 -76 -22 -95 -26 -59 -12 -218 -85 -375 -174 -63 -35
-127 -63 -173 -74 -68 -16 -77 -17 -140 -1 -74 18 -95 30 -153 82 -64 58 -138
183 -154 263 -4 19 -13 44 -20 55 -7 11 -15 46 -19 77 -3 32 -13 83 -21 115
-20 77 -20 264 0 303 8 15 18 55 21 87 4 32 13 69 20 83 7 14 17 61 23 104 6
42 15 85 20 95 6 10 13 42 16 72 4 30 15 86 25 124 10 39 21 109 25 156 4 47
10 91 15 98 4 7 30 19 56 27 153 42 185 52 196 62 7 5 29 13 48 17 19 4 45 13
57 21 12 8 28 14 34 14 7 0 31 8 53 19 112 52 155 71 160 71 3 0 29 14 58 31
29 18 82 47 118 67 65 35 151 90 245 157 77 55 155 105 163 105 4 0 13 5 19
11 15 15 222 109 242 109 9 1 39 9 66 20 74 27 323 28 380 0z m-27 -2598 c6
-41 -32 -72 -206 -169 -31 -17 -66 -32 -77 -32 -11 -1 -30 -8 -42 -16 -57 -40
-370 -44 -443 -6 -19 10 -48 21 -65 25 -16 4 -37 13 -45 20 -8 8 -26 17 -40
22 -65 23 -200 123 -200 148 0 35 14 36 570 34 l545 -3 3 -23z"/>
<path d="M1598 2734 c-3 -3 -37 -10 -74 -15 -85 -12 -160 -48 -224 -108 -44
-42 -50 -52 -50 -88 0 -56 18 -68 101 -67 51 1 78 7 106 24 35 20 51 22 189
22 132 0 156 -3 191 -20 22 -11 67 -24 100 -28 57 -6 63 -5 87 19 31 31 33 59
6 102 -41 67 -136 120 -260 146 -85 18 -162 24 -172 13z"/>
<path d="M3240 2721 c-95 -20 -161 -53 -216 -105 -45 -44 -60 -80 -50 -121 13
-51 105 -57 203 -13 42 19 66 21 188 21 122 -1 146 -4 189 -23 58 -26 164 -33
189 -11 11 9 17 28 17 56 0 36 -6 48 -43 84 -106 104 -303 151 -477 112z"/>
<path d="M1610 2424 c-114 -43 -177 -96 -216 -181 -50 -108 -21 -238 74 -335
37 -39 55 -49 101 -59 68 -14 178 -6 221 16 40 20 110 84 110 99 0 6 9 29 21
50 29 55 29 163 -1 231 -28 62 -93 127 -157 155 -49 22 -126 34 -153 24z"/>
<path d="M3320 2421 c-40 -11 -113 -48 -135 -68 -101 -89 -121 -273 -44 -393
61 -95 147 -130 284 -115 55 6 73 13 115 46 69 54 99 104 112 182 18 109 -2
178 -81 268 -48 57 -184 100 -251 80z"/>
</g>
</svg>
